<svg xmlns="http://www.w3.org/2000/svg" xmlns:xlink="http://www.w3.org/1999/xlink" width="512" height="96"><path d="M-.5-.5h95v96h-95v-96zm104 0h95v96h-95v-96zm104 0h95v96h-95v-96zm105 0h95v96h-95v-96z" fill="#73cf13"/><path fill="#dcdce6" d="M416.5-.5h95v96h-95v-96z"/><path fill="#fefefe" d="M463.5 18.5c3.272 6.288 6.272 12.788 9 19.5a437.29 437.29 0 0 0 22 2.5 349.74 349.74 0 0 0-17 14.5c2.451 6.75 3.784 13.583 4 20.5a158.8 158.8 0 0 0-17.5-11 462.51 462.51 0 0 1-17.5 11c.005-6.725 1.338-13.392 4-20l-16-15a147.12 147.12 0 0 1 22-2c1.735-6.818 4.068-13.485 7-20z"/><g fill="#fcfefb"><path d="M46.5 19.5a136.28 136.28 0 0 1 9 20l21 2a332.83 332.83 0 0 1-16 14.5A114.06 114.06 0 0 1 65 76.5a248.79 248.79 0 0 0-18-11A142.24 142.24 0 0 0 30.5 76c-.832.688-1.498.521-2-.5 1.46-6.382 3.127-12.716 5-19l-16-15a222.68 222.68 0 0 1 21-1.5c2.767-6.801 5.433-13.634 8-20.5z"/><use xlink:href="#B"/><use xlink:href="#B" x="104"/><use xlink:href="#B" x="209"/></g><defs ><path id="B" d="M150.5 19.5c3.499 6.339 6.499 13.006 9 20l21 2c-5.158 4.99-10.491 9.823-16 14.5 2.139 6.737 3.639 13.57 4.5 20.5a249.01 249.01 0 0 0-18-11c-5.737 3.119-11.237 6.619-16.5 10.5-.832.688-1.498.521-2-.5 1.461-6.382 3.127-12.716 5-19l-16-15a222.66 222.66 0 0 1 21-1.5 769.02 769.02 0 0 0 8-20.5z"/></defs></svg>