<svg xmlns="http://www.w3.org/2000/svg" xmlns:xlink="http://www.w3.org/1999/xlink" width="512" height="96"><path d="M-.5-.5h95v96h-95v-96zm104 0h95v96h-95v-96zm104 0h95v96h-95v-96zm105 0h95v96h-95v-96zm104 0h95v96h-95v-96z" fill="#03b67a"/><g fill="#fbfefd"><use xlink:href="#B"/><path d="M46.5 19.5a136.28 136.28 0 0 1 9 20 418.58 418.58 0 0 1 21 2.5 332.83 332.83 0 0 0-16 14.5c2.468 6.533 3.969 13.199 4.5 20a248.79 248.79 0 0 0-18-11A142.24 142.24 0 0 0 30.5 76c-.832.688-1.498.521-2-.5 1.46-6.382 3.127-12.716 5-19l-16-15a222.68 222.68 0 0 1 21-1.5c2.767-6.801 5.433-13.634 8-20.5z"/><use xlink:href="#B" x="-313" y="1"/><use xlink:href="#B" x="-209" y="1"/><use xlink:href="#B" x="-104" y="1"/></g><defs ><path id="B" d="M463.5 18.5c3.499 6.339 6.499 13.006 9 20 7.035.658 14.035 1.491 21 2.5-5.509 4.677-10.842 9.51-16 14.5 2.469 6.533 3.969 13.199 4.5 20a249.01 249.01 0 0 0-18-11c-5.737 3.119-11.237 6.619-16.5 10.5-.832.688-1.498.521-2-.5 1.461-6.382 3.127-12.716 5-19l-16-15a222.66 222.66 0 0 1 21-1.5 769.02 769.02 0 0 0 8-20.5z"/></defs></svg>