<svg xmlns="http://www.w3.org/2000/svg" xmlns:xlink="http://www.w3.org/1999/xlink" width="512" height="96"><path d="M-.5-.5h95v96h-95v-96zm104 0h95v96h-95v-96zm104 0h95v96h-95v-96zm105 0h95v96h-95v-96zm104 0h48v19c-3.628 6.204-6.295 12.871-8 20a262.14 262.14 0 0 0-22 2l16 15c-2.088 6.615-3.588 13.282-4.5 20 5.974-4.067 12.141-7.734 18.5-11v31h-48v-96z" fill="#03b67a"/><path fill="#dcdce6" d="M464.5-.5h47v96h-47v-31a491.62 491.62 0 0 1 17.5 11c-.731-6.986-2.231-13.82-4.5-20.5l17-15-21-1c-3.674-6.516-6.674-13.349-9-20.5v-19z"/><path fill="#fcfefd" d="M464.5 18.5c2.326 7.151 5.326 13.984 9 20.5l21 1-17 15c2.269 6.68 3.769 13.514 4.5 20.5a491.62 491.62 0 0 0-17.5-11c-6.359 3.266-12.526 6.933-18.5 11 .912-6.718 2.412-13.385 4.5-20l-16-15c7.309-.976 14.643-1.643 22-2 1.705-7.129 4.372-13.796 8-20z"/><g fill="#fbfdfc"><path d="M46.5 19.5a136.28 136.28 0 0 1 9 20 418.58 418.58 0 0 1 21 2.5 332.83 332.83 0 0 0-16 14.5c2.258 6.582 3.758 13.248 4.5 20a248.79 248.79 0 0 0-18-11 248.79 248.79 0 0 0-18 11c.742-6.752 2.242-13.418 4.5-20l-16-15a262.23 262.23 0 0 1 22-2 177.63 177.63 0 0 1 7-20z"/><use xlink:href="#B"/><use xlink:href="#B" x="104"/><use xlink:href="#B" x="209"/></g><defs ><path id="B" d="M150.5 19.5c3.499 6.339 6.499 13.006 9 20 7.035.658 14.035 1.491 21 2.5-5.509 4.677-10.842 9.51-16 14.5 2.258 6.582 3.758 13.248 4.5 20a249.01 249.01 0 0 0-18-11 249.01 249.01 0 0 0-18 11c.742-6.752 2.242-13.418 4.5-20l-16-15c7.309-.976 14.643-1.643 22-2a177.69 177.69 0 0 1 7-20z"/></defs></svg>